<?xml version="1.0" encoding="UTF-8"?>
<!DOCTYPE svg PUBLIC "-//W3C//DTD SVG 1.1//EN" "http://www.w3.org/Graphics/SVG/1.1/DTD/svg11.dtd">
<!-- Creator: CorelDRAW -->
<svg xmlns="http://www.w3.org/2000/svg" xml:space="preserve" width="70px" height="61px" version="1.1" style="shape-rendering:geometricPrecision; text-rendering:geometricPrecision; image-rendering:optimizeQuality; fill-rule:evenodd; clip-rule:evenodd"
viewBox="0 0 1.04 0.9"
 xmlns:xlink="http://www.w3.org/1999/xlink"
 xmlns:xodm="http://www.corel.com/coreldraw/odm/2003">
 <defs>
  <style type="text/css">
   <![CDATA[
    .str0 {stroke:#FEFEFE;stroke-width:0.09;stroke-miterlimit:22.9256}
    .fil0 {fill:none}
   ]]>
  </style>
 </defs>
 <g id="Camada_x0020_1">
  <metadata id="CorelCorpID_0Corel-Layer"/>
  <path class="fil0 str0" d="M0.73 0.86c0.04,0 0.01,-0.06 -0.01,-0.09 0,0 -0.04,-0.03 -0.13,-0.11 0,0 0.01,-0.01 0.03,-0.05 0.05,-0.05 0.04,-0.13 -0.01,-0.18 -0.05,-0.04 -0.13,-0.04 -0.17,0 -0.05,0.05 -0.06,0.13 -0.01,0.18 0.02,0.03 0.06,0.05 0.09,0.05 0.04,0 0.07,-0.02 0.1,-0.05 0.04,-0.05 0.04,-0.13 -0.01,-0.18 -0.05,-0.04 -0.13,-0.04 -0.18,0 -0.05,0.05 -0.05,0.13 0,0.18 0.02,0.04 0.03,0.05 0.03,0.05 -0.09,0.08 -0.13,0.11 -0.13,0.11 -0.02,0.03 -0.05,0.09 -0.02,0.09l0.42 0z"/>
  <path class="fil0 str0" d="M0.38 0.27c0.05,-0.05 0.05,-0.14 0,-0.19 -0.06,-0.05 -0.14,-0.05 -0.19,0 -0.05,0.05 -0.06,0.14 -0.01,0.19m0.2 0c0.05,-0.05 0.04,-0.14 -0.01,-0.19 -0.05,-0.05 -0.13,-0.05 -0.18,0 -0.06,0.05 -0.06,0.14 -0.01,0.19 0.02,0.03 0.03,0.05 0.03,0.05 -0.09,0.08 -0.14,0.12 -0.14,0.12 -0.01,0.02 -0.05,0.08 -0.01,0.08l0.19 0"/>
  <path class="fil0 str0" d="M0.66 0.27c-0.05,-0.05 -0.05,-0.14 0.01,-0.19 0.05,-0.05 0.13,-0.05 0.18,0 0.06,0.05 0.06,0.14 0.01,0.19m-0.2 0c-0.05,-0.05 -0.04,-0.14 0.01,-0.19 0.05,-0.05 0.13,-0.05 0.19,0 0.05,0.05 0.05,0.14 0,0.19 -0.02,0.03 -0.03,0.05 -0.03,0.05 0.09,0.08 0.14,0.12 0.14,0.12 0.02,0.02 0.05,0.08 0.01,0.08l-0.18 0"/>
 </g>
</svg>
