<?xml version="1.0" encoding="UTF-8"?>
<!DOCTYPE svg PUBLIC "-//W3C//DTD SVG 1.1//EN" "http://www.w3.org/Graphics/SVG/1.1/DTD/svg11.dtd">
<!-- Creator: CorelDRAW -->
<svg xmlns="http://www.w3.org/2000/svg" xml:space="preserve" width="97px" height="88px" version="1.1" style="shape-rendering:geometricPrecision; text-rendering:geometricPrecision; image-rendering:optimizeQuality; fill-rule:evenodd; clip-rule:evenodd"
viewBox="0 0 2.15 1.95"
 xmlns:xlink="http://www.w3.org/1999/xlink"
 xmlns:xodm="http://www.corel.com/coreldraw/odm/2003">
 <defs>
  <style type="text/css">
   <![CDATA[
    .str0 {stroke:#4687D6;stroke-width:0.05;stroke-miterlimit:22.9256}
    .fil1 {fill:#FEFEFE}
    .fil0 {fill:#4687D6}
   ]]>
  </style>
 </defs>
 <g id="Camada_x0020_1">
  <metadata id="CorelCorpID_0Corel-Layer"/>
  <circle class="fil0 str0" cx="1.75" cy="0.41" r="0.38"/>
  <path class="fil1" d="M0.65 1.76c0.11,0 0.08,0 0.2,0 -0.02,0.06 -0.15,0.09 -0.2,0zm0.09 -1.19l0.04 0 0.01 0c0.23,0 0.44,0.18 0.51,0.4 0.02,0.06 0.01,0.25 0.01,0.33 0,0.06 0,0.06 0.02,0.1 0.02,0.02 0.17,0.26 0.17,0.29 0,0.06 -0.04,0.07 -0.09,0.07 -0.14,0.01 -0.27,0 -0.41,0 -0.02,0.03 -0.01,0.05 -0.04,0.08 -0.05,0.08 -0.12,0.11 -0.23,0.11 -0.09,0 -0.18,-0.07 -0.22,-0.15 -0.01,-0.01 0,-0.02 -0.01,-0.04l-0.36 0c-0.03,0 -0.03,0 -0.06,0 -0.04,0 -0.08,-0.02 -0.08,-0.06 0,-0.04 0.02,-0.06 0.03,-0.09l0.13 -0.21c0.02,-0.04 0.02,-0.03 0.02,-0.1 0,-0.08 0,-0.27 0.02,-0.32 0.03,-0.11 0.1,-0.22 0.18,-0.28 0.03,-0.03 0.09,-0.07 0.14,-0.09 0.09,-0.03 0.14,-0.04 0.22,-0.04zm-0.56 1.06c0.01,-0.03 0.12,-0.19 0.13,-0.24 0.02,-0.04 0.01,-0.28 0.01,-0.36 0.01,-0.07 0.08,-0.18 0.14,-0.23 0.19,-0.15 0.5,-0.13 0.66,0.1 0.07,0.09 0.05,0.14 0.06,0.22 0,0.03 0,0.05 0,0.09 0,0.19 -0.02,0.16 0.07,0.3l0.06 0.12c-0.09,0 -0.18,0 -0.28,0 -0.1,0 -0.18,0 -0.28,0 -0.1,0 -0.18,0 -0.28,0 -0.09,0 -0.19,0 -0.29,0z"/>
 </g>
</svg>
