<?xml version="1.0" encoding="UTF-8"?>
<!DOCTYPE svg PUBLIC "-//W3C//DTD SVG 1.1//EN" "http://www.w3.org/Graphics/SVG/1.1/DTD/svg11.dtd">
<!-- Creator: CorelDRAW -->
<svg xmlns="http://www.w3.org/2000/svg" xml:space="preserve" width="5.7632mm" height="5.2318mm" version="1.1" style="shape-rendering:geometricPrecision; text-rendering:geometricPrecision; image-rendering:optimizeQuality; fill-rule:evenodd; clip-rule:evenodd"
viewBox="0 0 9.32 8.46"
 xmlns:xlink="http://www.w3.org/1999/xlink"
 xmlns:xodm="http://www.corel.com/coreldraw/odm/2003">
 <defs>
  <style type="text/css">
   <![CDATA[
    .str0 {stroke:#FEFEFE;stroke-width:0.81;stroke-miterlimit:22.9256}
    .fil0 {fill:none}
   ]]>
  </style>
 </defs>
 <g id="Camada_x0020_1">
  <metadata id="CorelCorpID_0Corel-Layer"/>
  <g id="_2342654131872">
   <path class="fil0 str0" d="M5.12 0.81c-0.49,0.37 -0.8,0.93 -0.84,1.54 -2.37,2.54 -3.56,3.81 -3.56,3.81 -0.28,0.29 -0.39,0.71 -0.28,1.09 0.11,0.39 0.43,0.68 0.82,0.77 0.39,0.09 0.81,-0.04 1.08,-0.34 1.49,-1.13 2.98,-2.26 4.46,-3.4 0.68,-0.01 1.32,-0.34 1.7,-0.9 0.73,-1.04 0.39,-2.02 -0.44,-2.55 -0.82,-0.52 -2.14,-0.62 -2.95,-0.02z"/>
   <path class="fil0 str0" d="M4.28 2.35c1.3,1.03 2.14,1.68 2.53,1.93"/>
  </g>
 </g>
</svg>
