<?xml version="1.0" encoding="UTF-8"?>
<!DOCTYPE svg PUBLIC "-//W3C//DTD SVG 1.1//EN" "http://www.w3.org/Graphics/SVG/1.1/DTD/svg11.dtd">
<!-- Creator: CorelDRAW -->
<svg xmlns="http://www.w3.org/2000/svg" xml:space="preserve" width="5.3468mm" height="4.7391mm" version="1.1" style="shape-rendering:geometricPrecision; text-rendering:geometricPrecision; image-rendering:optimizeQuality; fill-rule:evenodd; clip-rule:evenodd"
viewBox="0 0 7.5 6.65"
 xmlns:xlink="http://www.w3.org/1999/xlink"
 xmlns:xodm="http://www.corel.com/coreldraw/odm/2003">
 <defs>
  <style type="text/css">
   <![CDATA[
    .fil0 {fill:#FEFEFE}
    .fil1 {fill:#FEFEFE;fill-rule:nonzero}
   ]]>
  </style>
 </defs>
 <g id="Camada_x0020_1">
  <metadata id="CorelCorpID_0Corel-Layer"/>
  <rect class="fil0" x="0.14" y="3.87" width="7.18" height="0.76" rx="0.71" ry="0.71"/>
  <rect class="fil0" x="0.14" y="5.89" width="7.18" height="0.76" rx="0.71" ry="0.71"/>
  <path class="fil1" d="M1.28 0l4.94 0c0.35,0 0.67,0.14 0.91,0.38 0.23,0.23 0.38,0.55 0.38,0.91 0,0.35 -0.14,0.67 -0.38,0.91 -0.23,0.23 -0.55,0.38 -0.91,0.38l-4.94 0c-0.35,0 -0.67,-0.14 -0.91,-0.38 -0.23,-0.23 -0.38,-0.55 -0.38,-0.91 0,-0.35 0.14,-0.67 0.38,-0.91 0.23,-0.23 0.55,-0.38 0.91,-0.38zm4.94 0.7l-4.94 0c-0.16,0 -0.3,0.07 -0.41,0.17 -0.11,0.11 -0.17,0.25 -0.17,0.41 0,0.16 0.07,0.3 0.17,0.41 0.11,0.11 0.25,0.17 0.41,0.17l4.94 0c0.16,0 0.3,-0.07 0.41,-0.17 0.11,-0.11 0.17,-0.25 0.17,-0.41 0,-0.16 -0.07,-0.3 -0.17,-0.41 -0.11,-0.11 -0.25,-0.17 -0.41,-0.17z"/>
 </g>
</svg>
