<?xml version="1.0" encoding="UTF-8"?>
<!DOCTYPE svg PUBLIC "-//W3C//DTD SVG 1.1//EN" "http://www.w3.org/Graphics/SVG/1.1/DTD/svg11.dtd">
<!-- Creator: CorelDRAW -->
<svg xmlns="http://www.w3.org/2000/svg" xml:space="preserve" width="6.2068mm" height="5.0611mm" version="1.1" style="shape-rendering:geometricPrecision; text-rendering:geometricPrecision; image-rendering:optimizeQuality; fill-rule:evenodd; clip-rule:evenodd"
viewBox="0 0 31.64 25.8"
 xmlns:xlink="http://www.w3.org/1999/xlink"
 xmlns:xodm="http://www.corel.com/coreldraw/odm/2003">
 <defs>
  <style type="text/css">
   <![CDATA[
    .fil0 {fill:#FEFEFE;fill-rule:nonzero}
   ]]>
  </style>
 </defs>
 <g id="Camada_x0020_1">
  <metadata id="CorelCorpID_0Corel-Layer"/>
  <path class="fil0" d="M13.28 21.06l7.75 4.74 0 -3.28 3.29 0c4.05,-0.02 7.29,-3.26 7.32,-7.32l0 -7.89c-0.02,-4.05 -3.26,-7.29 -7.32,-7.32l-17.01 0c-4.05,0.02 -7.29,3.26 -7.32,7.32l0 7.89c0.02,4.05 3.26,7.29 7.32,7.32l1.93 0 0 -2.55 -1.93 0c-2.65,-0.02 -4.75,-2.12 -4.77,-4.77l0 -7.89c0.02,-2.65 2.12,-4.75 4.77,-4.77l17.01 0c2.65,0.02 4.75,2.12 4.77,4.77l0 7.89c-0.02,2.65 -2.12,4.75 -4.77,4.77l-3.29 0 0 -3.75 -7.75 4.84z"/>
 </g>
</svg>
