<?xml version="1.0" encoding="UTF-8"?>
<!DOCTYPE svg PUBLIC "-//W3C//DTD SVG 1.1//EN" "http://www.w3.org/Graphics/SVG/1.1/DTD/svg11.dtd">
<!-- Creator: CorelDRAW -->
<svg xmlns="http://www.w3.org/2000/svg" xml:space="preserve" width="167.927mm" height="1.4431mm" version="1.1" style="shape-rendering:geometricPrecision; text-rendering:geometricPrecision; image-rendering:optimizeQuality; fill-rule:evenodd; clip-rule:evenodd"
viewBox="0 0 26483.32 227.59"
 xmlns:xlink="http://www.w3.org/1999/xlink"
 xmlns:xodm="http://www.corel.com/coreldraw/odm/2003">
 <defs>
  <style type="text/css">
   <![CDATA[
    .fil2 {fill:none}
    .fil1 {fill:#FEFEFE}
    .fil0 {fill:#4D4D4D}
   ]]>
  </style>
   <clipPath id="id0">
    <path d="M106.82 0l26269.69 0c58.76,0 106.82,48.05 106.82,106.82l0 13.96c0,58.76 -48.05,106.82 -106.82,106.82l-26269.69 0c-58.76,0 -106.82,-48.05 -106.82,-106.82l0 -13.96c0,-58.76 48.05,-106.82 106.82,-106.82z"/>
   </clipPath>
 </defs>
 <g id="Camada_x0020_1">
  <metadata id="CorelCorpID_0Corel-Layer"/>
  <path class="fil0" d="M106.82 0l26269.69 0c58.76,0 106.82,48.05 106.82,106.82l0 13.96c0,58.76 -48.05,106.82 -106.82,106.82l-26269.69 0c-58.76,0 -106.82,-48.05 -106.82,-106.82l0 -13.96c0,-58.76 48.05,-106.82 106.82,-106.82z"/>
  <g style="clip-path:url(#id0)">
   <g id="_2342320432688">
    <rect class="fil1" y="-0.01" width="20226.68" height="227.6" rx="392.68" ry="106.82"/>
   </g>
  </g>
  <path class="fil2" d="M106.82 0l26269.69 0c58.76,0 106.82,48.05 106.82,106.82l0 13.96c0,58.76 -48.05,106.82 -106.82,106.82l-26269.69 0c-58.76,0 -106.82,-48.05 -106.82,-106.82l0 -13.96c0,-58.76 48.05,-106.82 106.82,-106.82z"/>
 </g>
</svg>
