<?xml version="1.0" encoding="UTF-8"?>
<!DOCTYPE svg PUBLIC "-//W3C//DTD SVG 1.1//EN" "http://www.w3.org/Graphics/SVG/1.1/DTD/svg11.dtd">
<!-- Creator: CorelDRAW -->
<svg xmlns="http://www.w3.org/2000/svg" xml:space="preserve" width="6.13mm" height="4.9902mm" version="1.1" style="shape-rendering:geometricPrecision; text-rendering:geometricPrecision; image-rendering:optimizeQuality; fill-rule:evenodd; clip-rule:evenodd"
viewBox="0 0 8.76 7.14"
 xmlns:xlink="http://www.w3.org/1999/xlink"
 xmlns:xodm="http://www.corel.com/coreldraw/odm/2003">
 <defs>
  <style type="text/css">
   <![CDATA[
    .str0 {stroke:#FEFEFE;stroke-width:0.71;stroke-miterlimit:22.9256}
    .fil0 {fill:none}
    .fil1 {fill:#FEFEFE}
   ]]>
  </style>
 </defs>
 <g id="Camada_x0020_1">
  <metadata id="CorelCorpID_0Corel-Layer"/>
  <path class="fil0 str0" d="M0.81 2.88l3.87 -2.25c0.05,-0.03 0.11,-0.06 0.17,-0.09l0 6.07c-0.12,-0.05 -0.24,-0.1 -0.35,-0.17l-3.5 -2.04c-0.77,-0.45 -0.85,-1.14 -0.18,-1.53z"/>
  <path class="fil1" d="M6.01 2.37c-0.03,0 -0.06,0 -0.08,0l0 2.27c0.03,0 0.05,0 0.08,0 0.63,0 1.14,-0.51 1.14,-1.14 0,-0.63 -0.51,-1.14 -1.14,-1.14z"/>
  <path class="fil1" d="M5.93 0.86c1,0.46 1.69,1.47 1.69,2.65 0,1.17 -0.69,2.18 -1.69,2.65l0 0.27c1.57,-0.04 2.83,-1.33 2.83,-2.91 0,-1.58 -1.26,-2.87 -2.83,-2.91l0 0.27z"/>
 </g>
</svg>
