<?xml version="1.0" encoding="UTF-8"?>
<!DOCTYPE svg PUBLIC "-//W3C//DTD SVG 1.1//EN" "http://www.w3.org/Graphics/SVG/1.1/DTD/svg11.dtd">
<!-- Creator: CorelDRAW -->
<svg xmlns="http://www.w3.org/2000/svg" xml:space="preserve" width="5.1116mm" height="4.6928mm" version="1.1" style="shape-rendering:geometricPrecision; text-rendering:geometricPrecision; image-rendering:optimizeQuality; fill-rule:evenodd; clip-rule:evenodd"
viewBox="0 0 4.72 4.33"
 xmlns:xlink="http://www.w3.org/1999/xlink"
 xmlns:xodm="http://www.corel.com/coreldraw/odm/2003">
 <defs>
  <style type="text/css">
   <![CDATA[
    .fil0 {fill:#FEFEFE}
   ]]>
  </style>
 </defs>
 <g id="Camada_x0020_1">
  <metadata id="CorelCorpID_0Corel-Layer"/>
  <path class="fil0" d="M2.76 1.44l0.72 -0.69 -0.35 -0.3c0,0 0.03,-0.38 0.35,-0.38 0.32,0 1.21,-0.06 1.21,-0.06l0.03 0.96c0,0 -0.06,0.65 -0.41,0.4 -0.35,-0.26 -0.35,-0.26 -0.35,-0.26l-0.78 0.75 -0.41 -0.41z"/>
  <path class="fil0" d="M1.96 2.9l-0.72 0.69 0.35 0.3c0,0 -0.03,0.38 -0.35,0.38 -0.32,0 -1.21,0.06 -1.21,0.06l-0.03 -0.96c0,0 0.06,-0.65 0.41,-0.4 0.35,0.26 0.35,0.26 0.35,0.26l0.78 -0.75 0.41 0.41z"/>
 </g>
</svg>
