<?xml version="1.0" encoding="UTF-8"?>
<!DOCTYPE svg PUBLIC "-//W3C//DTD SVG 1.1//EN" "http://www.w3.org/Graphics/SVG/1.1/DTD/svg11.dtd">
<!-- Creator: CorelDRAW -->
<svg xmlns="http://www.w3.org/2000/svg" xml:space="preserve" width="412px" height="18px" version="1.1" style="shape-rendering:geometricPrecision; text-rendering:geometricPrecision; image-rendering:optimizeQuality; fill-rule:evenodd; clip-rule:evenodd"
viewBox="0 0 32.19 1.43"
 xmlns:xlink="http://www.w3.org/1999/xlink"
 xmlns:xodm="http://www.corel.com/coreldraw/odm/2003">
 <defs>
  <style type="text/css">
   <![CDATA[
    .fil2 {fill:none}
    .fil1 {fill:#FEFEFE}
    .fil0 {fill:#4D4D4D}
   ]]>
  </style>
   <clipPath id="id0">
    <path d="M0.63 0.1l30.94 0c0.34,0 0.62,0.28 0.62,0.62l0 0.09c0,0.34 -0.28,0.62 -0.62,0.62l-30.94 0c-0.35,0 -0.63,-0.28 -0.63,-0.62l0 -0.09c0,-0.34 0.28,-0.62 0.63,-0.62z"/>
   </clipPath>
   <clipPath id="id1">
    <path d="M0.66 0l30.85 0c0.35,0 0.63,0.28 0.63,0.63l0 0.08c0,0.34 -0.28,0.62 -0.63,0.62l-30.85 0c-0.35,0 -0.63,-0.28 -0.63,-0.62l0 -0.08c0,-0.35 0.28,-0.63 0.63,-0.63z"/>
   </clipPath>
 </defs>
 <g id="Camada_x0020_1">
  <metadata id="CorelCorpID_0Corel-Layer"/>
  <path class="fil0" d="M0.63 0.1l30.94 0c0.34,0 0.62,0.28 0.62,0.62l0 0.09c0,0.34 -0.28,0.62 -0.62,0.62l-30.94 0c-0.35,0 -0.63,-0.28 -0.63,-0.62l0 -0.09c0,-0.34 0.28,-0.62 0.63,-0.62z"/>
  <g style="clip-path:url(#id0)">
   <g id="_2132694252272">
    <rect class="fil1" y="0.1" width="24.59" height="1.33" rx="0.48" ry="0.63"/>
   </g>
  </g>
  <path class="fil2" d="M0.63 0.1l30.94 0c0.34,0 0.62,0.28 0.62,0.62l0 0.09c0,0.34 -0.28,0.62 -0.62,0.62l-30.94 0c-0.35,0 -0.63,-0.28 -0.63,-0.62l0 -0.09c0,-0.34 0.28,-0.62 0.63,-0.62z"/>
  <path class="fil0" d="M0.66 0l30.85 0c0.35,0 0.63,0.28 0.63,0.63l0 0.08c0,0.34 -0.28,0.62 -0.63,0.62l-30.85 0c-0.35,0 -0.63,-0.28 -0.63,-0.62l0 -0.08c0,-0.35 0.28,-0.63 0.63,-0.63z"/>
  <g style="clip-path:url(#id1)">
   <g id="_2132694249968">
    <rect class="fil1" x="0.03" width="24.52" height="1.33" rx="0.48" ry="0.63"/>
   </g>
  </g>
  <path class="fil2" d="M0.66 0l30.85 0c0.35,0 0.63,0.28 0.63,0.63l0 0.08c0,0.34 -0.28,0.62 -0.63,0.62l-30.85 0c-0.35,0 -0.63,-0.28 -0.63,-0.62l0 -0.08c0,-0.35 0.28,-0.63 0.63,-0.63z"/>
 </g>
</svg>
